<mxfile host="app.diagrams.net" modified="2024-07-09T12:24:14.490Z" agent="Mozilla/5.0 (Windows NT 10.0; Win64; x64) AppleWebKit/537.36 (KHTML, like Gecko) Chrome/126.0.0.0 Safari/537.36" etag="SBx6-qkmnhmqAG36SUGa" version="24.6.4" type="github">
  <diagram name="Page-1" id="Xld8LTtunJzqU2MNTG1y">
    <mxGraphModel dx="1644" dy="507" grid="1" gridSize="10" guides="1" tooltips="1" connect="1" arrows="1" fold="1" page="1" pageScale="1" pageWidth="850" pageHeight="1100" math="0" shadow="0">
      <root>
        <mxCell id="0" />
        <mxCell id="1" parent="0" />
        <mxCell id="5ZD0j_dcl06lkLH1A-iH-1" value="User" style="swimlane;childLayout=stackLayout;horizontal=1;startSize=50;horizontalStack=0;rounded=1;fontSize=14;fontStyle=0;strokeWidth=2;resizeParent=0;resizeLast=1;shadow=0;dashed=0;align=center;arcSize=4;whiteSpace=wrap;html=1;fillColor=#f8cecc;strokeColor=#b85450;" vertex="1" parent="1">
          <mxGeometry y="40" width="240" height="200" as="geometry" />
        </mxCell>
        <mxCell id="5ZD0j_dcl06lkLH1A-iH-2" value="&lt;font style=&quot;font-size: 18px;&quot;&gt;* id (primary key)&lt;/font&gt;&lt;br&gt;&lt;font style=&quot;font-size: 18px;&quot;&gt;*username&lt;/font&gt;&lt;br&gt;&lt;font style=&quot;font-size: 18px;&quot;&gt;*email&lt;/font&gt;&lt;div&gt;&lt;font style=&quot;font-size: 18px;&quot;&gt;*password&lt;/font&gt;&lt;/div&gt;" style="align=left;strokeColor=#6c8ebf;fillColor=#dae8fc;spacingLeft=4;fontSize=12;verticalAlign=top;resizable=0;rotatable=0;part=1;html=1;" vertex="1" parent="5ZD0j_dcl06lkLH1A-iH-1">
          <mxGeometry y="50" width="240" height="150" as="geometry" />
        </mxCell>
        <mxCell id="5ZD0j_dcl06lkLH1A-iH-3" value="FoodItem" style="swimlane;childLayout=stackLayout;horizontal=1;startSize=50;horizontalStack=0;rounded=1;fontSize=14;fontStyle=0;strokeWidth=2;resizeParent=0;resizeLast=1;shadow=0;dashed=0;align=center;arcSize=4;whiteSpace=wrap;html=1;fillColor=#f8cecc;strokeColor=#b85450;" vertex="1" parent="1">
          <mxGeometry x="399" y="40" width="240" height="200" as="geometry" />
        </mxCell>
        <mxCell id="5ZD0j_dcl06lkLH1A-iH-4" value="&lt;font style=&quot;font-size: 18px;&quot;&gt;*id (Primary Key)&lt;/font&gt;&lt;div&gt;&lt;font size=&quot;3&quot;&gt;*name&lt;/font&gt;&lt;/div&gt;&lt;div&gt;&lt;font size=&quot;3&quot;&gt;*desciption&lt;/font&gt;&lt;/div&gt;&lt;div&gt;&lt;font size=&quot;3&quot;&gt;*price&lt;/font&gt;&lt;/div&gt;&lt;div&gt;&lt;font size=&quot;3&quot;&gt;*user_id (FK)&lt;/font&gt;&lt;br&gt;&lt;br&gt;&lt;/div&gt;" style="align=left;strokeColor=#6c8ebf;fillColor=#dae8fc;spacingLeft=4;fontSize=12;verticalAlign=top;resizable=0;rotatable=0;part=1;html=1;" vertex="1" parent="5ZD0j_dcl06lkLH1A-iH-3">
          <mxGeometry y="50" width="240" height="150" as="geometry" />
        </mxCell>
        <mxCell id="5ZD0j_dcl06lkLH1A-iH-7" value="Order" style="swimlane;childLayout=stackLayout;horizontal=1;startSize=50;horizontalStack=0;rounded=1;fontSize=14;fontStyle=0;strokeWidth=2;resizeParent=0;resizeLast=1;shadow=0;dashed=0;align=center;arcSize=4;whiteSpace=wrap;html=1;fillColor=#f8cecc;strokeColor=#b85450;" vertex="1" parent="1">
          <mxGeometry y="320" width="240" height="190" as="geometry" />
        </mxCell>
        <mxCell id="5ZD0j_dcl06lkLH1A-iH-8" value="&lt;font style=&quot;font-size: 18px;&quot;&gt;*id (PK)&lt;/font&gt;&lt;div&gt;&lt;font size=&quot;3&quot;&gt;*user_id (FK)&lt;/font&gt;&lt;/div&gt;&lt;div&gt;&lt;font size=&quot;3&quot;&gt;*order_date&lt;/font&gt;&lt;/div&gt;" style="align=left;strokeColor=#6c8ebf;fillColor=#dae8fc;spacingLeft=4;fontSize=12;verticalAlign=top;resizable=0;rotatable=0;part=1;html=1;" vertex="1" parent="5ZD0j_dcl06lkLH1A-iH-7">
          <mxGeometry y="50" width="240" height="140" as="geometry" />
        </mxCell>
        <mxCell id="5ZD0j_dcl06lkLH1A-iH-9" value="OrderItem" style="swimlane;childLayout=stackLayout;horizontal=1;startSize=50;horizontalStack=0;rounded=1;fontSize=14;fontStyle=0;strokeWidth=2;resizeParent=0;resizeLast=1;shadow=0;dashed=0;align=center;arcSize=4;whiteSpace=wrap;html=1;fillColor=#f8cecc;strokeColor=#b85450;" vertex="1" parent="1">
          <mxGeometry x="399" y="320" width="241" height="190" as="geometry" />
        </mxCell>
        <mxCell id="5ZD0j_dcl06lkLH1A-iH-10" value="&lt;font style=&quot;font-size: 18px;&quot;&gt;*order_id (FK)&lt;/font&gt;&lt;div&gt;&lt;font size=&quot;3&quot;&gt;*food_id (FK)&amp;nbsp;&lt;/font&gt;&lt;/div&gt;&lt;div&gt;&lt;font size=&quot;3&quot;&gt;*quantity&lt;/font&gt;&lt;/div&gt;" style="align=left;strokeColor=#6c8ebf;fillColor=#dae8fc;spacingLeft=4;fontSize=12;verticalAlign=top;resizable=0;rotatable=0;part=1;html=1;" vertex="1" parent="5ZD0j_dcl06lkLH1A-iH-9">
          <mxGeometry y="50" width="241" height="140" as="geometry" />
        </mxCell>
        <mxCell id="5ZD0j_dcl06lkLH1A-iH-11" value="" style="endArrow=classic;html=1;rounded=0;exitX=1;exitY=0.25;exitDx=0;exitDy=0;entryX=0;entryY=0.25;entryDx=0;entryDy=0;" edge="1" parent="1" source="5ZD0j_dcl06lkLH1A-iH-2" target="5ZD0j_dcl06lkLH1A-iH-4">
          <mxGeometry width="50" height="50" relative="1" as="geometry">
            <mxPoint x="300" y="290" as="sourcePoint" />
            <mxPoint x="350" y="240" as="targetPoint" />
          </mxGeometry>
        </mxCell>
        <mxCell id="5ZD0j_dcl06lkLH1A-iH-13" value="&lt;h1&gt;1 TO M&lt;/h1&gt;" style="text;html=1;align=center;verticalAlign=middle;resizable=0;points=[];autosize=1;strokeColor=none;fillColor=none;" vertex="1" parent="1">
          <mxGeometry x="270" y="80" width="100" height="70" as="geometry" />
        </mxCell>
        <mxCell id="5ZD0j_dcl06lkLH1A-iH-14" value="" style="endArrow=classic;html=1;rounded=0;exitX=0.5;exitY=1;exitDx=0;exitDy=0;entryX=0.5;entryY=0;entryDx=0;entryDy=0;" edge="1" parent="1" source="5ZD0j_dcl06lkLH1A-iH-1" target="5ZD0j_dcl06lkLH1A-iH-7">
          <mxGeometry width="50" height="50" relative="1" as="geometry">
            <mxPoint x="280" y="290" as="sourcePoint" />
            <mxPoint x="330" y="240" as="targetPoint" />
          </mxGeometry>
        </mxCell>
        <mxCell id="5ZD0j_dcl06lkLH1A-iH-15" value="&lt;h1&gt;1 TO M&lt;/h1&gt;" style="text;html=1;align=center;verticalAlign=middle;resizable=0;points=[];autosize=1;strokeColor=none;fillColor=none;" vertex="1" parent="1">
          <mxGeometry x="130" y="240" width="100" height="70" as="geometry" />
        </mxCell>
        <mxCell id="5ZD0j_dcl06lkLH1A-iH-16" value="" style="endArrow=classic;html=1;rounded=0;exitX=1;exitY=0.457;exitDx=0;exitDy=0;exitPerimeter=0;" edge="1" parent="1" source="5ZD0j_dcl06lkLH1A-iH-8">
          <mxGeometry width="50" height="50" relative="1" as="geometry">
            <mxPoint x="280" y="290" as="sourcePoint" />
            <mxPoint x="390" y="434" as="targetPoint" />
          </mxGeometry>
        </mxCell>
        <mxCell id="5ZD0j_dcl06lkLH1A-iH-17" value="&lt;h1&gt;1 TO M&lt;/h1&gt;" style="text;html=1;align=center;verticalAlign=middle;resizable=0;points=[];autosize=1;strokeColor=none;fillColor=none;" vertex="1" parent="1">
          <mxGeometry x="270" y="368" width="100" height="70" as="geometry" />
        </mxCell>
        <mxCell id="5ZD0j_dcl06lkLH1A-iH-18" value="&lt;h1&gt;1 TO M&lt;/h1&gt;" style="text;html=1;align=center;verticalAlign=middle;resizable=0;points=[];autosize=1;strokeColor=none;fillColor=none;" vertex="1" parent="1">
          <mxGeometry x="520" y="238" width="100" height="70" as="geometry" />
        </mxCell>
        <mxCell id="5ZD0j_dcl06lkLH1A-iH-12" value="" style="endArrow=classic;html=1;rounded=0;entryX=0.5;entryY=0;entryDx=0;entryDy=0;exitX=0.5;exitY=1;exitDx=0;exitDy=0;" edge="1" parent="1" source="5ZD0j_dcl06lkLH1A-iH-4" target="5ZD0j_dcl06lkLH1A-iH-9">
          <mxGeometry width="50" height="50" relative="1" as="geometry">
            <mxPoint x="280" y="290" as="sourcePoint" />
            <mxPoint x="500" y="240" as="targetPoint" />
          </mxGeometry>
        </mxCell>
      </root>
    </mxGraphModel>
  </diagram>
</mxfile>
